<svg width="50" height="50" viewBox="0 0 50 50" fill="none" xmlns="http://www.w3.org/2000/svg">
<path d="M17.791 47.836C18.502 47.53 19 46.823 19 46V40.6C19 40.403 19.016 40.198 19.041 39.99C19.027 39.994 19.014 39.997 19 40C19 40 16 40 15.4 40C13.9 40 12.6 39.4 12 38.2C11.3 36.9 11 34.7 9.2 33.5C8.9 33.3 9.1 33 9.7 33C10.3 33.1 11.6 33.9 12.4 35C13.3 36.1 14.2 37 15.8 37C18.287 37 19.62 36.875 20.422 36.445C21.356 35.056 22.649 34 24 34V33.975C18.332 33.793 14.711 31.909 13.025 29C9.36 29.042 6.169 29.405 4.348 29.707C4.29 29.38 4.24 29.051 4.197 28.72C5.994 28.424 9.04 28.073 12.542 28.006C12.43 27.73 12.333 27.447 12.251 27.157C8.74 26.979 5.71 27.118 4.064 27.254C4.044 26.922 4.017 26.591 4.013 26.255C5.662 26.12 8.61 25.985 12.031 26.144C11.952 25.644 11.901 25.133 11.901 24.601C11.901 22.901 12.501 21.101 13.601 19.601C13.101 17.901 12.401 14.301 13.801 13.001C16.501 13.001 18.401 14.301 19.301 15.101C21 14.4 22.9 14 25 14C27.1 14 29 14.4 30.6 15.1C31.5 14.3 33.4 13 36.1 13C37.6 14.4 36.8 18 36.3 19.6C37.4 21.1 38 22.8 37.9 24.6C37.9 25.084 37.855 25.551 37.79 26.009C41.289 25.837 44.317 25.975 45.994 26.111C45.992 26.448 45.961 26.777 45.943 27.11C44.272 26.972 41.168 26.83 37.584 27.021C37.495 27.357 37.387 27.684 37.259 28.001C40.805 28.047 43.924 28.39 45.807 28.69C45.764 29.022 45.714 29.351 45.656 29.677C43.744 29.371 40.485 29.013 36.777 28.995C35.112 31.873 31.557 33.75 26 33.969V34C28.6 34 31 37.9 31 40.6V46C31 46.823 31.498 47.53 32.209 47.836C41.37 44.804 48 36.164 48 26C48 13.318 37.683 3 25 3C12.317 3 2 13.318 2 26C2 36.164 8.63 44.804 17.791 47.836Z" fill="#0B44DF"/>
</svg>
