<svg width="79" height="79" viewBox="0 0 79 79" fill="none" xmlns="http://www.w3.org/2000/svg">
<rect x="0.5" y="0.5" width="78" height="78" rx="39" stroke="#0B44DF"/>
<path d="M30.2977 61.1413C31.6499 61.7655 33.6304 61.6466 33.6304 60.1573V60.1573V54.7375C33.6304 54.5519 33.6442 54.3592 33.6662 54.1636C33.6682 54.1455 33.651 54.1308 33.6332 54.1347V54.1347C33.6314 54.1351 33.6314 54.1353 33.6295 54.1353C33.5704 54.1353 30.6896 54.1353 30.1087 54.1353C28.6413 54.1353 27.3696 53.5331 26.7826 52.3288C26.0978 51.024 25.8043 48.816 24.0435 47.6116V47.6116C23.4909 47.2336 24.8782 47.1626 25.4475 47.5148C26.0259 47.8726 26.6925 48.4379 27.1739 49.1171C28.0543 50.2211 28.9348 51.1244 30.5 51.1244C32.227 51.1244 33.3852 51.0612 34.1925 50.8701C34.7584 50.7362 35.1756 50.3025 35.5454 49.8536C36.3875 48.8312 37.429 48.119 38.509 48.1134C38.516 48.1134 38.5217 48.1077 38.5217 48.1006V48.1006C38.5217 48.0938 38.5161 48.0881 38.5093 48.0879C34.6776 47.9598 31.8032 47.0154 29.8499 45.4791C28.3111 44.269 26.5674 43.091 24.6137 43.2156C22.6793 43.3389 21.0111 43.536 19.8004 43.7231C19.5215 43.7662 19.2576 43.5804 19.2162 43.3013V43.3013C19.1759 43.0298 19.3622 42.7778 19.6335 42.7358C21.3118 42.4759 23.8334 42.1973 26.714 42.1122C27.0039 42.1036 27.2003 41.8111 27.1134 41.5344V41.5344C27.0597 41.3636 26.9074 41.2389 26.7285 41.2305C23.7631 41.0909 21.1739 41.1853 19.5436 41.3019C19.2557 41.3225 19.003 41.1065 18.9869 40.8183V40.8183C18.9719 40.5497 19.1766 40.3224 19.445 40.303C20.8239 40.2033 22.8752 40.1188 25.2584 40.1738C26.0619 40.1924 26.6858 39.4838 26.6858 38.68V38.68C26.6858 38.1525 26.7419 37.6154 26.8512 37.0806C27.3268 34.7536 27.7991 32.3354 27.741 29.961C27.7339 29.6739 27.7396 29.391 27.7613 29.1185C27.877 27.6645 29.8624 27.0119 31.2321 27.5133V27.5133C33.315 28.2758 35.227 28.4889 37.4238 28.1823C38.0921 28.089 38.7842 28.0402 39.5 28.0402C40.1747 28.0402 40.8283 28.0835 41.4573 28.1666C43.6647 28.458 45.6056 28.2594 47.6993 27.502V27.502C49.0538 27.0119 51.0403 27.6429 51.1758 29.077C51.2018 29.3523 51.2099 29.6376 51.2039 29.9267C51.154 32.3223 51.6472 34.7605 52.035 37.125C52.1183 37.6328 52.1481 38.1516 52.1196 38.679V38.679C52.1196 39.4159 52.694 40.0583 53.4307 40.0378C55.9505 39.9677 58.1258 40.0556 59.5648 40.159C59.832 40.1782 60.0359 40.4037 60.0202 40.6711V40.6711C60.0032 40.9602 59.7493 41.1778 59.4605 41.1572C57.8087 41.0392 55.1714 40.9435 52.1574 41.0909C51.9508 41.101 51.776 41.2475 51.7164 41.4455V41.4455C51.6207 41.7634 51.8477 42.0973 52.1795 42.1055C55.077 42.1772 57.6349 42.4477 59.3674 42.7077C59.64 42.7486 59.8278 43.0021 59.7873 43.2747V43.2747C59.746 43.5528 59.4842 43.7377 59.2061 43.696C57.9473 43.5071 56.2358 43.3112 54.2646 43.1949C52.2644 43.0768 50.4859 44.2925 48.9022 45.5201C46.9845 47.0066 44.1932 47.9298 40.4937 48.0817C40.4851 48.082 40.4783 48.089 40.4783 48.0975V48.0975C40.4783 48.1063 40.4854 48.1134 40.4942 48.1134C43.0315 48.1297 45.3696 52.0333 45.3696 54.7375V60.1573V60.1573C45.3696 61.6466 47.3501 61.7655 48.7023 61.1413C56.5331 57.5262 62 49.4498 62 40.0841C62 27.3557 51.9073 17 39.5 17C27.0927 17 17 27.3557 17 40.0841C17 49.4498 22.4669 57.5262 30.2977 61.1413Z" fill="#0B44DF"/>
</svg>
