<svg width="77" height="77" viewBox="0 0 77 77" fill="none" xmlns="http://www.w3.org/2000/svg">
<rect x="0.5" y="0.5" width="76" height="76" rx="38" stroke="#0438C6"/>
<path d="M40.8727 17.4425C29.381 16.0977 18.9379 24.3534 17.5939 35.8453C17.1742 39.4337 17.6885 43.0708 19.0822 46.39L15.3244 55.5401C15.2011 55.8407 15.2464 56.184 15.4441 56.4414C15.5963 56.6402 15.8205 56.7647 16.0625 56.793C16.1349 56.8015 16.2094 56.801 16.283 56.7922L26.4424 55.5018C29.2678 57.473 32.5633 58.7239 35.9975 59.1258C47.4892 60.4705 57.9323 52.2149 59.2763 40.723C60.6204 29.2311 52.3643 18.7872 40.8727 17.4425ZM48.059 46.8654C47.4688 48.0474 45.1986 48.9235 44.1534 48.9546C43.2151 48.9817 42.0412 48.9031 40.807 48.3508C40.059 48.0153 39.1002 47.5742 37.8872 46.8802C32.7878 43.9632 29.907 38.2167 29.68 37.8328C29.4539 37.449 27.8303 34.7128 28.1343 32.113C28.4384 29.5132 29.9698 28.3964 30.5228 27.9246C31.0759 27.4529 31.6703 27.3884 32.0274 27.4301C32.3844 27.4719 32.74 27.5181 33.0509 27.5692C33.3779 27.624 33.8356 27.5352 34.1491 28.6172C34.4711 29.7278 35.2372 32.4528 35.3384 32.7337C35.4416 33.014 35.4943 33.3334 35.2754 33.6651C35.0566 33.9968 34.942 34.2067 34.6377 34.4843C34.3333 34.7619 33.9953 35.1072 33.7265 35.3164C33.4275 35.5487 33.1159 35.8016 33.3657 36.3673C33.6156 36.933 34.487 38.7885 35.9143 40.3756C37.7472 42.4143 39.4063 43.1743 39.91 43.5015C40.4137 43.8286 40.7315 43.8208 41.0844 43.5048C41.4375 43.1879 42.6024 42.1181 43.0203 41.6315C43.4382 41.1449 43.785 41.2736 44.2555 41.5078C44.726 41.7411 47.2071 43.3266 47.7108 43.6537C48.2145 43.9809 48.556 44.155 48.6644 44.3909C48.7729 44.6259 48.6491 45.6843 48.059 46.8654Z" fill="#0438C6"/>
</svg>
